<?xml version="1.0" encoding="UTF-8" standalone="no" ?>
<!DOCTYPE svg PUBLIC "-//W3C//DTD SVG 1.1//EN" "http://www.w3.org/Graphics/SVG/1.1/DTD/svg11.dtd">
<svg xmlns="http://www.w3.org/2000/svg" xmlns:xlink="http://www.w3.org/1999/xlink" version="1.1" width="640" height="480" viewBox="0 0 640 480" xml:space="preserve">
<desc>Created with Fabric.js 3.6.6</desc>
<defs>
</defs>
<g transform="matrix(0.93 0 0 0.94 308.75 239.5)"  >
<path style="stroke: none; stroke-width: 1; stroke-dasharray: none; stroke-linecap: butt; stroke-dashoffset: 0; stroke-linejoin: miter; stroke-miterlimit: 4; fill: rgb(255,255,255); fill-rule: nonzero; opacity: 1;"  transform=" translate(-256, -256)" d="M 256 64 C 150 64 64 150 64 256 s 86 192 192 192 c 17.7 0 32 14.3 32 32 s -14.3 32 -32 32 C 114.6 512 0 397.4 0 256 S 114.6 0 256 0 S 512 114.6 512 256 v 32 c 0 53 -43 96 -96 96 c -29.3 0 -55.6 -13.2 -73.2 -33.9 C 320 371.1 289.5 384 256 384 c -70.7 0 -128 -57.3 -128 -128 s 57.3 -128 128 -128 c 27.9 0 53.7 8.9 74.7 24.1 c 5.7 -5 13.1 -8.1 21.3 -8.1 c 17.7 0 32 14.3 32 32 v 80 v 32 c 0 17.7 14.3 32 32 32 s 32 -14.3 32 -32 V 256 c 0 -106 -86 -192 -192 -192 z m 64 192 c 0 -35.3 -28.7 -64 -64 -64 s -64 28.7 -64 64 s 28.7 64 64 64 s 64 -28.7 64 -64 z" stroke-linecap="round" />
</g>
</svg>