<?xml version="1.0" encoding="UTF-8" standalone="no" ?>
<!DOCTYPE svg PUBLIC "-//W3C//DTD SVG 1.1//EN" "http://www.w3.org/Graphics/SVG/1.1/DTD/svg11.dtd">
<svg xmlns="http://www.w3.org/2000/svg" xmlns:xlink="http://www.w3.org/1999/xlink" version="1.1" width="640" height="480" viewBox="0 0 640 480" xml:space="preserve">
<desc>Created with Fabric.js 3.6.6</desc>
<defs>
</defs>
<g transform="matrix(0.93 0 0 0.92 314.76 238.01)"  >
<path style="stroke: none; stroke-width: 1; stroke-dasharray: none; stroke-linecap: butt; stroke-dashoffset: 0; stroke-linejoin: miter; stroke-miterlimit: 4; fill: rgb(255,255,255); fill-rule: nonzero; opacity: 1;"  transform=" translate(-256.01, -255.99)" d="M 164.9 24.6 c -7.7 -18.6 -28 -28.5 -47.4 -23.2 l -88 24 C 12.1 30.2 0 46 0 64 C 0 311.4 200.6 512 448 512 c 18 0 33.8 -12.1 38.6 -29.5 l 24 -88 c 5.3 -19.4 -4.6 -39.7 -23.2 -47.4 l -96 -40 c -16.3 -6.8 -35.2 -2.1 -46.3 11.6 L 304.7 368 C 234.3 334.7 177.3 277.7 144 207.3 L 193.3 167 c 13.7 -11.2 18.4 -30 11.6 -46.3 l -40 -96 z" stroke-linecap="round" />
</g>
</svg>